<?xml version="1.0" encoding="UTF-8"?><svg xmlns="http://www.w3.org/2000/svg" xmlns:xlink="http://www.w3.org/1999/xlink" fill-opacity="1" color-rendering="auto" color-interpolation="auto" stroke="black" text-rendering="auto" stroke-linecap="square" width="475" stroke-miterlimit="10" stroke-opacity="1" shape-rendering="auto" fill="black" stroke-dasharray="none" font-weight="normal" stroke-width="1" height="345" font-family="'Dialog'" font-style="normal" stroke-linejoin="miter" font-size="12" stroke-dashoffset="0" image-rendering="auto">
  <!--Generated by ySVG-->
  <defs id="genericDefs"/>
  <g>
    <defs id="defs1">
      <clipPath clipPathUnits="userSpaceOnUse" id="clipPath1">
        <path d="M0 0 L475 0 L475 345 L0 345 L0 0 Z"/>
      </clipPath>
      <clipPath clipPathUnits="userSpaceOnUse" id="clipPath2">
        <path d="M0 -15 L475 -15 L475 330 L0 330 L0 -15 Z"/>
      </clipPath>
    </defs>
    <g fill="white" transform="translate(0,15)" stroke="white">
      <rect x="0" width="475" height="345" y="-15" clip-path="url(#clipPath2)" stroke="none"/>
    </g>
    <g fill="rgb(255,204,0)" transform="matrix(1,0,0,1,0,15)" stroke="rgb(255,204,0)">
      <rect x="300" width="65" height="30" y="0" clip-path="url(#clipPath2)" stroke="none"/>
    </g>
    <g stroke-miterlimit="1.45" font-family="sans-serif" transform="matrix(1,0,0,1,0,15)" stroke-linecap="butt">
      <text x="315.2529" xml:space="preserve" y="19.1543" clip-path="url(#clipPath2)" stroke="none">Batch</text>
      <rect fill="none" x="300" width="65" height="30" y="0" clip-path="url(#clipPath2)"/>
    </g>
    <g fill="rgb(51,204,204)" transform="matrix(1,0,0,1,0,15)" stroke="rgb(51,204,204)">
      <rect x="188.75" width="65" height="30" y="75" clip-path="url(#clipPath2)" stroke="none"/>
    </g>
    <g stroke-miterlimit="1.45" font-family="sans-serif" transform="matrix(1,0,0,1,0,15)" stroke-linecap="butt">
      <text x="200.5342" xml:space="preserve" y="94.1543" clip-path="url(#clipPath2)" stroke="none">Design</text>
      <rect fill="none" x="188.75" width="65" height="30" y="75" clip-path="url(#clipPath2)"/>
    </g>
    <g fill="rgb(204,153,255)" transform="matrix(1,0,0,1,0,15)" stroke="rgb(204,153,255)">
      <ellipse rx="32.5" ry="15" clip-path="url(#clipPath2)" cx="142.5" cy="240" stroke="none"/>
    </g>
    <g stroke-miterlimit="1.45" font-family="sans-serif" transform="matrix(1,0,0,1,0,15)" stroke-linecap="butt">
      <text x="129.665" xml:space="preserve" y="244.1543" clip-path="url(#clipPath2)" stroke="none">Test</text>
      <ellipse rx="32.5" fill="none" ry="15" clip-path="url(#clipPath2)" cx="142.5" cy="240"/>
    </g>
    <g fill="rgb(255,204,0)" transform="matrix(1,0,0,1,0,15)" stroke="rgb(255,204,0)">
      <rect x="110" width="65" height="30" y="150" clip-path="url(#clipPath2)" stroke="none"/>
    </g>
    <g stroke-miterlimit="1.45" font-family="sans-serif" transform="matrix(1,0,0,1,0,15)" stroke-linecap="butt">
      <text x="125.2529" xml:space="preserve" y="169.1543" clip-path="url(#clipPath2)" stroke="none">Batch</text>
      <rect fill="none" x="110" width="65" height="30" y="150" clip-path="url(#clipPath2)"/>
    </g>
    <g fill="rgb(51,204,204)" transform="matrix(1,0,0,1,0,15)" stroke="rgb(51,204,204)">
      <rect x="15" width="65" height="30" y="225" clip-path="url(#clipPath2)" stroke="none"/>
    </g>
    <g stroke-miterlimit="1.45" font-family="sans-serif" transform="matrix(1,0,0,1,0,15)" stroke-linecap="butt">
      <text x="26.7842" xml:space="preserve" y="244.1543" clip-path="url(#clipPath2)" stroke="none">Design</text>
      <rect fill="none" x="15" width="65" height="30" y="225" clip-path="url(#clipPath2)"/>
    </g>
    <g fill="rgb(204,153,255)" transform="matrix(1,0,0,1,0,15)" stroke="rgb(204,153,255)">
      <ellipse rx="32.5" ry="15" clip-path="url(#clipPath2)" cx="332.5" cy="90" stroke="none"/>
    </g>
    <g stroke-miterlimit="1.45" font-family="sans-serif" transform="matrix(1,0,0,1,0,15)" stroke-linecap="butt">
      <text x="319.665" xml:space="preserve" y="94.1543" clip-path="url(#clipPath2)" stroke="none">Test</text>
      <ellipse rx="32.5" fill="none" ry="15" clip-path="url(#clipPath2)" cx="332.5" cy="90"/>
    </g>
    <g fill="rgb(51,204,204)" transform="matrix(1,0,0,1,0,15)" stroke="rgb(51,204,204)">
      <ellipse rx="32.5" ry="15" clip-path="url(#clipPath2)" cx="237.5" cy="165" stroke="none"/>
    </g>
    <g stroke-miterlimit="1.45" font-family="sans-serif" transform="matrix(1,0,0,1,0,15)" stroke-linecap="butt">
      <text x="217.5781" xml:space="preserve" y="169.1543" clip-path="url(#clipPath2)" stroke="none">#class</text>
      <ellipse rx="32.5" fill="none" ry="15" clip-path="url(#clipPath2)" cx="237.5" cy="165"/>
    </g>
    <g fill="rgb(51,204,204)" transform="matrix(1,0,0,1,0,15)" stroke="rgb(51,204,204)">
      <ellipse rx="32.5" ry="15" clip-path="url(#clipPath2)" cx="47.5" cy="300" stroke="none"/>
    </g>
    <g stroke-miterlimit="1.45" font-family="sans-serif" transform="matrix(1,0,0,1,0,15)" stroke-linecap="butt">
      <text x="27.5781" xml:space="preserve" y="304.1543" clip-path="url(#clipPath2)" stroke="none">#class</text>
      <ellipse rx="32.5" fill="none" ry="15" clip-path="url(#clipPath2)" cx="47.5" cy="300"/>
    </g>
    <g fill="rgb(204,153,255)" transform="matrix(1,0,0,1,0,15)" stroke="rgb(204,153,255)">
      <ellipse rx="32.5" ry="15" clip-path="url(#clipPath2)" cx="332.5" cy="165" stroke="none"/>
    </g>
    <g stroke-miterlimit="1.45" font-family="sans-serif" transform="matrix(1,0,0,1,0,15)" stroke-linecap="butt">
      <text x="312.5781" xml:space="preserve" y="169.1543" clip-path="url(#clipPath2)" stroke="none">#class</text>
      <ellipse rx="32.5" fill="none" ry="15" clip-path="url(#clipPath2)" cx="332.5" cy="165"/>
    </g>
    <g fill="rgb(204,153,255)" transform="matrix(1,0,0,1,0,15)" stroke="rgb(204,153,255)">
      <ellipse rx="32.5" ry="15" clip-path="url(#clipPath2)" cx="142.5" cy="300" stroke="none"/>
    </g>
    <g stroke-miterlimit="1.45" font-family="sans-serif" transform="matrix(1,0,0,1,0,15)" stroke-linecap="butt">
      <text x="122.5781" xml:space="preserve" y="304.1543" clip-path="url(#clipPath2)" stroke="none">#class</text>
      <ellipse rx="32.5" fill="none" ry="15" clip-path="url(#clipPath2)" cx="142.5" cy="300"/>
    </g>
    <g fill="rgb(153,204,0)" transform="matrix(1,0,0,1,0,15)" stroke="rgb(153,204,0)">
      <path d="M395 90 L427.5 75 L460 90 L427.5 105 Z" clip-path="url(#clipPath2)" fill-rule="evenodd" stroke="none"/>
    </g>
    <g stroke-miterlimit="1.45" font-family="sans-serif" transform="matrix(1,0,0,1,0,15)" stroke-linecap="butt">
      <text x="414.8145" xml:space="preserve" y="94.1543" clip-path="url(#clipPath2)" stroke="none">Eval</text>
      <path fill="none" d="M395 90 L427.5 75 L460 90 L427.5 105 Z" fill-rule="evenodd" clip-path="url(#clipPath2)"/>
    </g>
    <g fill="rgb(153,204,0)" transform="matrix(1,0,0,1,0,15)" stroke="rgb(153,204,0)">
      <path d="M205 240 L237.5 225 L270 240 L237.5 255 Z" clip-path="url(#clipPath2)" fill-rule="evenodd" stroke="none"/>
    </g>
    <g stroke-miterlimit="1.45" font-family="sans-serif" transform="matrix(1,0,0,1,0,15)" stroke-linecap="butt">
      <text x="224.8145" xml:space="preserve" y="244.1543" clip-path="url(#clipPath2)" stroke="none">Eval</text>
      <path fill="none" d="M205 240 L237.5 225 L270 240 L237.5 255 Z" fill-rule="evenodd" clip-path="url(#clipPath2)"/>
      <path fill="none" d="M310.8333 30 L310.8333 38.25 L310.2035 39.832 L308.3138 41.2031 L305.1644 42.3633 L300.7552 43.3125 L288.1576 44.5781 L270.5208 45 L261.5625 45 L243.9258 45.8438 L236.9971 46.8984 L231.3281 48.375 L226.9189 50.2734 L223.7695 52.5938 L221.8799 55.3359 L221.25 58.5 L221.25 66.9678" clip-path="url(#clipPath2)"/>
      <path d="M221.25 74.9678 L226.25 62.9678 L221.25 65.9678 L216.25 62.9678 Z" clip-path="url(#clipPath2)" stroke="none"/>
      <path fill="none" d="M205 105 L205 113.25 L204.5605 114.832 L203.2422 116.2031 L201.0449 117.3633 L197.9688 118.3125 L189.1797 119.5781 L176.875 120 L170.625 120 L158.3203 120.8438 L153.4863 121.8984 L149.5312 123.375 L146.4551 125.2734 L144.2578 127.5938 L142.9395 130.3359 L142.5 133.5 L142.5 141.9678" clip-path="url(#clipPath2)"/>
      <path d="M142.5 149.9678 L147.5 137.9678 L142.5 140.9678 L137.5 137.9678 Z" clip-path="url(#clipPath2)" stroke="none"/>
      <path fill="none" d="M142.5 180 L142.5 217" clip-path="url(#clipPath2)"/>
      <path d="M142.5 225 L147.5 213 L142.5 216 L137.5 213 Z" clip-path="url(#clipPath2)" stroke="none"/>
      <path fill="none" d="M120.8333 180 L120.8333 188.25 L120.3177 189.832 L118.7708 191.2031 L116.1927 192.3633 L112.5833 193.3125 L102.2708 194.5781 L87.8333 195 L80.5 195 L66.0625 195.8438 L60.3906 196.8984 L55.75 198.375 L52.1406 200.2734 L49.5625 202.5938 L48.0156 205.3359 L47.5 208.5 L47.5 216.9678" clip-path="url(#clipPath2)"/>
      <path d="M47.5 224.9678 L52.5 212.9678 L47.5 215.9678 L42.5 212.9678 Z" clip-path="url(#clipPath2)" stroke="none"/>
      <path fill="none" d="M332.5 30 L332.5 67" clip-path="url(#clipPath2)"/>
      <path d="M332.5 75 L337.5 63 L332.5 66 L327.5 63 Z" clip-path="url(#clipPath2)" stroke="none"/>
      <path fill="none" d="M237.5 105 L237.5 142" clip-path="url(#clipPath2)"/>
      <path d="M237.5 150 L242.5 138 L237.5 141 L232.5 138 Z" clip-path="url(#clipPath2)" stroke="none"/>
      <path fill="none" d="M47.5 255 L47.5 277" clip-path="url(#clipPath2)"/>
      <path d="M47.5 285 L52.5 273 L47.5 276 L42.5 273 Z" clip-path="url(#clipPath2)" stroke="none"/>
      <path fill="none" d="M332.5 105 L332.5 142" clip-path="url(#clipPath2)"/>
      <path d="M332.5 150 L337.5 138 L332.5 141 L327.5 138 Z" clip-path="url(#clipPath2)" stroke="none"/>
      <path fill="none" d="M142.5 255 L142.5 277" clip-path="url(#clipPath2)"/>
      <path d="M142.5 285 L147.5 273 L142.5 276 L137.5 273 Z" clip-path="url(#clipPath2)" stroke="none"/>
      <path fill="none" d="M354.1667 30 L354.1667 38.25 L354.6823 39.832 L356.2292 41.2031 L358.8073 42.3633 L362.4167 43.3125 L372.7292 44.5781 L387.1667 45 L394.5 45 L408.9375 45.8438 L414.6094 46.8984 L419.25 48.375 L422.8594 50.2734 L425.4375 52.5938 L426.9844 55.3359 L427.5 58.5 L427.5 67" clip-path="url(#clipPath2)"/>
      <path d="M427.5 75 L432.5 63 L427.5 66 L422.5 63 Z" clip-path="url(#clipPath2)" stroke="none"/>
      <path fill="none" d="M164.1667 180 L164.1667 188.25 L164.6823 189.832 L166.2292 191.2031 L168.8073 192.3633 L172.4167 193.3125 L182.7292 194.5781 L197.1667 195 L204.5 195 L218.9375 195.8438 L224.6094 196.8984 L229.25 198.375 L232.8594 200.2734 L235.4375 202.5938 L236.9844 205.3359 L237.5 208.5 L237.5 217" clip-path="url(#clipPath2)"/>
      <path d="M237.5 225 L242.5 213 L237.5 216 L232.5 213 Z" clip-path="url(#clipPath2)" stroke="none"/>
    </g>
  </g>
</svg>
